<svg id="Layer_1" data-name="Layer 1" xmlns="http://www.w3.org/2000/svg" viewBox="0 0 1354 605"><title>Artboard 2</title><path d="M16.72,152.93c20.43,0,33.65-13.22,33.65-33.05V72.41h93.74v80.52H212v93.74h-67.9v63.7c0,47.47,6,60.09,30.65,60.09,10.81,0,22.23-2.41,37.25-6v88.93c-14.42,4.21-38.46,6-52.88,6C84.62,459.39,50.37,425.14,50.37,350V246.67H-.11V152.93Z" style="fill:#1B0554"/><path d="M372.27,146.92a112.26,112.26,0,0,1,76.92,30.65V152.93h93.74V453.38H449.19V426.94a106.5,106.5,0,0,1-76.92,32.45c-85.93,0-141.81-69.7-141.81-156.23C230.46,217.23,286.34,146.92,372.27,146.92ZM324.2,303.16c0,34.25,28.24,62.49,62.5,62.49a62.83,62.83,0,0,0,62.49-62.49c0-34.26-28.24-62.5-62.49-62.5A62.83,62.83,0,0,0,324.2,303.16Z" style="fill:#1B0554"/><path d="M815.17,518.57c58.21,0,105.75-12.82,105.75-65.79V426.94A106.5,106.5,0,0,1,844,459.39c-85.93,0-141.81-69.7-141.81-156.23,0-85.93,55.88-156.24,141.81-156.24a112.26,112.26,0,0,1,76.92,30.65V152.93h93.74V447.37c0,119.69-82,157.73-198.89,157.73Zm-59.46,37.86,40.22-253.27c0,34.25,28.24,62.49,62.5,62.49a62.83,62.83,0,0,0,62.49-62.49c0-34.26-28.24-62.5-62.49-62.5A62.83,62.83,0,0,0,795.93,303.16Z" style="fill:#1B0554"/><path d="M1354,303.16c0,85.93-69.7,156.23-156.23,156.23-85.93,0-156.24-70.3-156.24-156.23,0-86.53,70.31-156.24,156.24-156.24A155.92,155.92,0,0,1,1354,303.16Zm-156.23,62.49a62.83,62.83,0,0,0,62.49-62.49c0-34.26-28.24-62.5-62.49-62.5a62.83,62.83,0,0,0-62.5,62.5C1135.27,337.41,1163.51,365.65,1197.77,365.65Z" style="fill:#1B0554"/><path d="M780.57,604.6c-109.8,0-205.44-47.93-205.44-185.57V0h93.53V419c0,74.26,52,99.19,112.25,99.19Z" style="fill:#1B0554"/></svg>